<svg width="31" height="31" viewBox="0 0 31 31" fill="none" xmlns="http://www.w3.org/2000/svg">
<path d="M23.25 0H7.75C3.46979 0 0 3.46979 0 7.75V23.25C0 27.5302 3.46979 31 7.75 31H23.25C27.5302 31 31 27.5302 31 23.25V7.75C31 3.46979 27.5302 0 23.25 0Z" fill="white"/>
<path d="M21.3329 14.2906C21.5242 15.5806 21.3039 16.898 20.7033 18.0555C20.1026 19.2131 19.1523 20.1518 17.9875 20.7381C16.8226 21.3244 15.5025 21.5284 14.215 21.3213C12.9275 21.1141 11.7381 20.5062 10.8159 19.5841C9.89382 18.6619 9.28593 17.4725 9.07875 16.185C8.87157 14.8975 9.07565 13.5774 9.66195 12.4125C10.2483 11.2477 11.1869 10.2974 12.3445 9.69674C13.502 9.09612 14.8195 8.87578 16.1094 9.06707C17.4253 9.26219 18.6435 9.87534 19.5841 10.8159C20.5247 11.7566 21.1378 12.9747 21.3329 14.2906Z" fill="#C3C3C3"/>
<path d="M24.025 6.97498H24.041" stroke="#C3C3C3" stroke-width="2" stroke-linecap="round" stroke-linejoin="round"/>
</svg>
